<?xml version="1.0" encoding="UTF-8"?>
<svg width="14px" height="14px" viewBox="0 0 14 14" version="1.1" xmlns="http://www.w3.org/2000/svg" xmlns:xlink="http://www.w3.org/1999/xlink">
    <!-- Generator: Sketch 41.2 (35397) - http://www.bohemiancoding.com/sketch -->
    <title>Icon - All Files</title>
    <desc>Created with Sketch.</desc>
    <defs></defs>
    <g id="Examples" stroke="none" stroke-width="1" fill="none" fill-rule="evenodd">
        <g id="Artboard" transform="translate(-180.000000, -155.000000)">
            <g id="Finder-Window-(Inactive)" transform="translate(161.000000, 74.000000)">
                <g id="Sidebar" transform="translate(0.000000, 55.000000)">
                    <g id="Icon---All-Files" transform="translate(19.000000, 26.000000)">
                        <path d="M1.38916171,0.997544646 C1.45037601,0.446615951 1.94483697,0 2.4955775,0 L11.5044225,0 C12.0542648,0 12.5495902,0.446311399 12.6108383,0.997544646 L13.5,9 L13.5,11 L13.5,13.0010434 C13.5,13.5527519 13.0525106,14 12.5014977,14 L1.49850233,14 C0.94704472,14 0.5,13.5573397 0.5,13.0010434 L0.5,11 L0.5,9 L1.38916171,0.997544646 Z" id="Outer" fill="#777777"></path>
                        <path d="M1.5,11 L3.5,11 C3.5,11 4,12.5 7,12.5 C10,12.5 10.5,11 10.5,11 L12.5,11 L12.5,13 L1.5,13 L1.5,11 Z" id="Label" fill="#828282"></path>
                        <path d="M2.94481124,1.49669884 C2.97529115,1.22237965 3.23079681,1 3.50043583,1 L10.4995642,1 C10.7759472,1 11.0247192,1.22247314 11.0551888,1.49669884 L12,10 L10,10 C10,10 10,11.5 7,11.5 C4,11.5 4,10 4,10 L2,10 L2.94481124,1.49669884 Z" id="Inner" fill="#E7E7E7"></path>
                        <rect id="Line-4" fill="#8D8D8D" x="3" y="8" width="8" height="1"></rect>
                        <rect id="Line-3" fill="#8D8D8D" x="3.5" y="6" width="7" height="1"></rect>
                        <rect id="Line-2" fill="#8D8D8D" x="3.5" y="4" width="7" height="1"></rect>
                        <rect id="Line-1" fill="#8D8D8D" x="3.5" y="2" width="7" height="1"></rect>
                    </g>
                </g>
            </g>
        </g>
    </g>
</svg>