<svg viewBox="0 0 32 32"><path d="M29.4 7.6h-5.2l-3.1-3.1c-.5-.5-1.1-.8-1.8-.8h-6.5c-.8 0-1.4.3-1.9.8l-3 3.1H2.6C1.2 7.6 0 8.7 0 10.2v15.5c0 1.4 1.2 2.6 2.6 2.6h26.8c1.4 0 2.6-1.2 2.6-2.6V10.2c0-1.5-1.2-2.6-2.6-2.6zM16 24.4c-3.9 0-7.1-3.2-7.1-7.1 0-3.9 3.2-7.1 7.1-7.1 3.9 0 7.1 3.2 7.1 7.1 0 3.9-3.2 7.1-7.1 7.1zm12.9-12.7c-.6 0-1.1-.5-1.1-1.1s.5-1.1 1.1-1.1c.6 0 1.1.5 1.1 1.1s-.5 1.1-1.1 1.1z"/><path d="M16 11.9c-3 0-5.4 2.4-5.4 5.4 0 3 2.4 5.4 5.4 5.4 3 0 5.4-2.4 5.4-5.4S19 11.9 16 11.9z"/></svg>