<svg width="16" height="16" viewBox="0 0 16 16" xmlns="http://www.w3.org/2000/svg" xmlns:xlink="http://www.w3.org/1999/xlink"><title>Icon - PC</title><defs><rect id="a" x="1" y=".5" width="14" height="12" rx="1.867"/><mask id="c" x="0" y="0" width="14" height="12" fill="#fff"><use xlink:href="#a"/></mask><rect id="b" x="2.5" y="2" width="11" height="8.5" rx="1"/><mask id="d" x="0" y="0" width="11" height="8.5" fill="#fff"><use xlink:href="#b"/></mask></defs><g fill="none" fill-rule="evenodd"><path d="M4.667 13s.952.556 1.428.556S3 15.5 3 15.5s2.62-.278 5-.278 5 .278 5 .278-3.57-1.944-3.095-1.944c.476 0 1.428-.556 1.428-.556H4.667z" fill="#828282"/><rect fill="#777" x=".5" width="15" height="13" rx="2"/><use stroke="#B6B6B6" mask="url(#c)" fill="#E7E7E7" xlink:href="#a"/><path fill="#7C7C7C" d="M11.5 11h1v1h-1zm-6 0h1v1h-1zm-2 0h1v1h-1z"/><use stroke="#777" mask="url(#d)" fill="#828282" xlink:href="#b"/></g></svg>