<svg viewBox="0 0 14 14" xmlns="http://www.w3.org/2000/svg"><g fill="none" fill-rule="evenodd"><path d="M1.39.998C1.45.447 1.944 0 2.495 0h9.008c.55 0 1.046.446 1.107.998L13.5 9V13.001a.999.999 0 0 1-.999.999H1.5a.996.996 0 0 1-.999-.999V9L1.39.998z" fill="#777"/><path d="M1.5 11h2S4 12.5 7 12.5s3.5-1.5 3.5-1.5h2v2h-11v-2z" fill="#828282"/><path d="M2.945 1.497A.577.577 0 0 1 3.5 1h7c.276 0 .525.222.555.497L12 10h-2s0 1.5-3 1.5S4 10 4 10H2l.945-8.503z" fill="#E7E7E7"/><path fill="#8D8D8D" d="M3 8h8v1H3zM3.5 6h7v1h-7zM3.5 4h7v1h-7zM3.5 2h7v1h-7z"/></g></svg>